<svg width="403" height="817" viewBox="0 0 403 817" fill="none" xmlns="http://www.w3.org/2000/svg">
<g clip-path="url(#clip0_4184_4373)">
<mask id="mask0_4184_4373" style="mask-type:luminance" maskUnits="userSpaceOnUse" x="0" y="0" width="403" height="817">
<path d="M403 0H0V816.255H403V0Z" fill="white"/>
</mask>
<g mask="url(#mask0_4184_4373)">
<path d="M391.421 246.607H401.045C401.557 246.607 401.969 247.02 401.969 247.532V343.238C401.969 343.75 401.557 344.163 401.045 344.163H391.421C390.908 344.163 390.495 343.75 390.495 343.238V247.532C390.495 247.02 390.908 246.607 391.421 246.607Z" fill="#8896A2"/>
<path d="M391.421 247.809H401.045C401.557 247.809 401.969 248.222 401.969 248.734V342.406C401.969 342.918 401.557 343.331 401.045 343.331H391.421C390.908 343.331 390.495 342.918 390.495 342.406V248.734C390.495 248.222 390.908 247.809 391.421 247.809Z" fill="url(#paint0_linear_4184_4373)"/>
<path d="M1.95368 224.444H11.5777C12.0903 224.444 12.503 224.857 12.503 225.369V285.43C12.503 285.942 12.0902 286.354 11.5777 286.354H1.95368C1.44102 286.354 1.02832 285.942 1.02832 285.43V225.369C1.02832 224.857 1.44127 224.444 1.95368 224.444Z" fill="#8896A2"/>
<path d="M1.95368 225.646H11.5777C12.0903 225.646 12.503 226.058 12.503 226.57V284.598C12.503 285.11 12.0902 285.522 11.5777 285.522H1.95368C1.44102 285.522 1.02832 285.11 1.02832 284.598V226.57C1.02832 226.058 1.44127 225.646 1.95368 225.646Z" fill="url(#paint1_linear_4184_4373)"/>
<path d="M1.95368 303.414H11.5777C12.0903 303.414 12.503 303.827 12.503 304.339V364.399C12.503 364.912 12.0902 365.324 11.5777 365.324H1.95368C1.44102 365.324 1.02832 364.912 1.02832 364.399V304.339C1.02832 303.827 1.44127 303.414 1.95368 303.414Z" fill="#8896A2"/>
<path d="M1.95368 304.616H11.5777C12.0903 304.616 12.503 305.028 12.503 305.54V363.568C12.503 364.08 12.0902 364.492 11.5777 364.492H1.95368C1.44102 364.492 1.02832 364.08 1.02832 363.568V305.54C1.02832 305.028 1.44127 304.616 1.95368 304.616Z" fill="url(#paint2_linear_4184_4373)"/>
<path d="M1.95365 166.311H11.5776C12.0903 166.311 12.503 166.724 12.503 167.236V196.478C12.503 196.99 12.0901 197.403 11.5776 197.403H1.95365C1.44099 197.403 1.02832 196.99 1.02832 196.478V167.236C1.02832 166.724 1.44124 166.311 1.95365 166.311Z" fill="#8896A2"/>
<path d="M1.95365 167.513H11.5776C12.0903 167.513 12.503 167.926 12.503 168.438V195.646C12.503 196.158 12.0901 196.571 11.5776 196.571H1.95365C1.44099 196.571 1.02832 196.158 1.02832 195.646V168.438C1.02832 167.926 1.44124 167.513 1.95365 167.513Z" fill="url(#paint3_linear_4184_4373)"/>
<path fill-rule="evenodd" clip-rule="evenodd" d="M70.9765 1.13501H332.023C369.195 1.13501 399.329 31.2345 399.329 68.3642V747.887C399.329 785.017 369.195 815.116 332.023 815.116H70.9765C33.8041 815.116 3.66992 785.017 3.66992 747.887V68.3642C3.66992 31.2345 33.8041 1.13501 70.9765 1.13501ZM72.7694 18.3264H330.231C358.646 18.3264 381.682 41.3357 381.682 69.719V746.535C381.682 774.919 358.646 797.928 330.231 797.928H72.7694C44.3533 797.928 21.3176 774.919 21.3176 746.535V69.719C21.3176 41.3357 44.3533 18.3264 72.7694 18.3264Z" fill="#BAC7D2"/>
<path opacity="0.4" d="M332.022 0.575928H70.9757V1.69409H332.022V0.575928ZM399.888 68.3641C399.888 30.9258 369.503 0.575928 332.022 0.575928V1.69409C368.885 1.69409 398.769 31.5434 398.769 68.3641H399.888ZM399.888 747.887V68.3641H398.769V747.887H399.888ZM332.022 815.675C369.503 815.675 399.888 785.325 399.888 747.887H398.769C398.769 784.708 368.885 814.557 332.022 814.557V815.675ZM70.9757 815.675H332.022V814.557H70.9757V815.675ZM3.10938 747.887C3.10938 785.325 33.4942 815.675 70.9757 815.675V814.557C34.1124 814.557 4.22882 784.708 4.22882 747.887H3.10938ZM3.10938 68.3641V747.887H4.22882V68.3641H3.10938ZM70.9757 0.575928C33.4942 0.575928 3.10938 30.9258 3.10938 68.3641H4.22882C4.22882 31.5434 34.1124 1.69409 70.9757 1.69409V0.575928ZM330.23 17.7673H72.7686V18.8855H330.23V17.7673ZM382.241 69.719C382.241 41.0269 358.955 17.7673 330.23 17.7673V18.8855C358.337 18.8855 381.122 41.6444 381.122 69.719H382.241ZM382.241 746.535V69.719H381.122V746.535H382.241ZM330.23 798.487C358.955 798.487 382.241 775.227 382.241 746.535H381.122C381.122 774.61 358.337 797.369 330.23 797.369V798.487ZM72.7686 798.487H330.23V797.369H72.7686V798.487ZM20.7571 746.535C20.7571 775.227 44.0434 798.487 72.7686 798.487V797.369C44.6617 797.369 21.8765 774.61 21.8765 746.535H20.7571ZM20.7571 69.719V746.535H21.8765V69.719H20.7571ZM72.7686 17.7673C44.0434 17.7673 20.7571 41.0269 20.7571 69.719H21.8765C21.8765 41.6444 44.6617 18.8855 72.7686 18.8855V17.7673Z" fill="#848E97"/>
<g filter="url(#filter0_f_4184_4373)">
<path fill-rule="evenodd" clip-rule="evenodd" d="M9.40979 70.2852C9.40979 35.0469 38.0091 6.48047 73.288 6.48047H329.712C364.99 6.48047 393.589 35.0469 393.589 70.2852V745.966C393.589 781.204 364.99 809.77 329.712 809.77H73.288C38.0091 809.77 9.40979 781.204 9.40979 745.966V70.2852ZM73.288 4.24414C36.7725 4.24414 7.1709 33.8117 7.1709 70.2852V745.966C7.1709 782.439 36.7725 812.007 73.288 812.007H329.712C366.227 812.007 395.828 782.439 395.828 745.966V70.2852C395.828 33.8117 366.227 4.24414 329.712 4.24414H73.288Z" fill="#DBEAF7"/>
</g>
<path fill-rule="evenodd" clip-rule="evenodd" d="M73.2877 5.3623H329.711C365.609 5.3623 394.709 34.4293 394.709 70.2852V745.966C394.709 781.822 365.609 810.889 329.711 810.889H73.2877C37.3905 810.889 8.29004 781.822 8.29004 745.966V70.2852C8.29004 34.4293 37.3905 5.3623 73.2877 5.3623ZM72.7685 18.3265H330.23C358.646 18.3265 381.682 41.3358 381.682 69.7191V746.535C381.682 774.919 358.646 797.928 330.23 797.928H72.7685C44.3524 797.928 21.3167 774.919 21.3167 746.535V69.7191C21.3167 41.3358 44.3524 18.3265 72.7685 18.3265Z" fill="#0D0D0D"/>
<path fill-rule="evenodd" clip-rule="evenodd" d="M73.4298 9.54712H329.568C362.137 9.54712 388.541 35.9193 388.541 68.451V747.8C388.541 780.332 362.137 806.704 329.568 806.704H73.4298C40.8606 806.704 14.458 780.332 14.458 747.8V68.451C14.458 35.9193 40.8606 9.54712 73.4298 9.54712ZM72.7686 18.3264H330.23C358.646 18.3264 381.682 41.3357 381.682 69.719V746.535C381.682 774.919 358.646 797.928 330.23 797.928H72.7686C44.3526 797.928 21.3168 774.919 21.3168 746.535V69.719C21.3168 41.3357 44.3526 18.3264 72.7686 18.3264Z" fill="black"/>
<path d="M162.424 5.3623C166.426 5.3623 166.322 6.18523 167.151 7.119C167.756 7.80004 168.534 8.01699 170.066 8.01699H232.933C234.466 8.01699 235.243 7.80007 235.847 7.119C236.675 6.18523 236.574 5.3623 240.576 5.3623H162.424Z" fill="url(#paint4_linear_4184_4373)"/>
</g>
</g>
<defs>
<filter id="filter0_f_4184_4373" x="5.55919" y="2.63243" width="391.881" height="810.986" filterUnits="userSpaceOnUse" color-interpolation-filters="sRGB">
<feFlood flood-opacity="0" result="BackgroundImageFix"/>
<feBlend mode="normal" in="SourceGraphic" in2="BackgroundImageFix" result="shape"/>
<feGaussianBlur stdDeviation="0.805855" result="effect1_foregroundBlur_4184_4373"/>
</filter>
<linearGradient id="paint0_linear_4184_4373" x1="395.159" y1="247.989" x2="395.159" y2="343.252" gradientUnits="userSpaceOnUse">
<stop stop-color="#E0E6EB"/>
<stop offset="0.267273" stop-color="#B6C4CF"/>
<stop offset="0.911215" stop-color="#AEBCC8"/>
<stop offset="1" stop-color="#698196"/>
</linearGradient>
<linearGradient id="paint1_linear_4184_4373" x1="5.69211" y1="225.826" x2="5.69211" y2="285.805" gradientUnits="userSpaceOnUse">
<stop stop-color="#E0E6EB"/>
<stop offset="0.267273" stop-color="#B6C4CF"/>
<stop offset="0.911215" stop-color="#AEBCC8"/>
<stop offset="1" stop-color="#698196"/>
</linearGradient>
<linearGradient id="paint2_linear_4184_4373" x1="5.69211" y1="304.796" x2="5.69211" y2="364.775" gradientUnits="userSpaceOnUse">
<stop stop-color="#E0E6EB"/>
<stop offset="0.267273" stop-color="#B6C4CF"/>
<stop offset="0.911215" stop-color="#AEBCC8"/>
<stop offset="1" stop-color="#698196"/>
</linearGradient>
<linearGradient id="paint3_linear_4184_4373" x1="5.69209" y1="167.693" x2="5.69209" y2="196.636" gradientUnits="userSpaceOnUse">
<stop stop-color="#E0E6EB"/>
<stop offset="0.267273" stop-color="#B6C4CF"/>
<stop offset="0.911215" stop-color="#AEBCC8"/>
<stop offset="1" stop-color="#698196"/>
</linearGradient>
<linearGradient id="paint4_linear_4184_4373" x1="170.122" y1="5.3623" x2="170.122" y2="8.01699" gradientUnits="userSpaceOnUse">
<stop/>
<stop offset="1" stop-color="#212121"/>
</linearGradient>
<clipPath id="clip0_4184_4373">
<rect width="403" height="816.255" fill="white"/>
</clipPath>
</defs>
</svg>
