<svg width="359" height="722" viewBox="0 0 359 722" fill="none" xmlns="http://www.w3.org/2000/svg">
<g clip-path="url(#clip0_1210_42413)">
<mask id="mask0_1210_42413" style="mask-type:luminance" maskUnits="userSpaceOnUse" x="0" y="0" width="359" height="722">
<path d="M359 0H0V722H359V0Z" fill="white"/>
</mask>
<g mask="url(#mask0_1210_42413)">
<path fill-rule="evenodd" clip-rule="evenodd" d="M354.506 148.323H355.337C356.256 148.323 357 148.792 357 149.371V199.653C357 200.231 356.256 200.7 355.337 200.7H354.506V148.323Z" fill="#121515"/>
<path fill-rule="evenodd" clip-rule="evenodd" d="M2 215.665C2 214.747 2.74444 214.002 3.66276 214.002H4.49415V266.38H3.66276C2.74444 266.38 2 265.635 2 264.717V215.665Z" fill="#121515"/>
<path fill-rule="evenodd" clip-rule="evenodd" d="M2 149.986C2 149.068 2.74444 148.323 3.66276 148.323H4.49415V200.7H3.66276C2.74444 200.7 2 199.956 2 199.038V149.986Z" fill="#121515"/>
<path fill-rule="evenodd" clip-rule="evenodd" d="M2 99.2717C2 98.3533 2.74444 97.6089 3.66276 97.6089H4.49415V125.044H3.66276C2.74444 125.044 2 124.3 2 123.382V99.2717Z" fill="#121515"/>
<g filter="url(#filter0_dd_1210_42413)">
<path fill-rule="evenodd" clip-rule="evenodd" d="M4.49414 54.877C4.49414 25.95 27.9441 2.5 56.8712 2.5H302.129C331.056 2.5 354.506 25.95 354.506 54.877V662.941C354.506 691.868 331.056 715.826 302.129 715.826H56.8712C27.9441 715.826 4.49414 692.375 4.49414 663.448V54.877ZM21.1218 79.9871C21.1218 78.3303 22.4649 76.9871 24.1218 76.9871H334.878C336.535 76.9871 337.878 78.3303 337.878 79.9871V637C337.878 638.657 336.535 640 334.878 640H24.1218C22.4649 640 21.1218 638.657 21.1218 637V79.9871Z" fill="#3A4245"/>
</g>
<path fill-rule="evenodd" clip-rule="evenodd" d="M8.65039 54.3771C8.65039 27.7459 30.2393 6.15698 56.8705 6.15698H302.128C328.759 6.15698 350.348 27.7459 350.348 54.3771V662.948C350.348 689.58 328.759 711.169 302.128 711.169H56.8705C30.2393 711.169 8.65039 689.58 8.65039 662.948V54.3771ZM21.1211 79.4872C21.1211 77.8303 22.4643 76.4872 24.1211 76.4872H334.878C336.534 76.4872 337.878 77.8303 337.878 79.4872V637C337.878 638.657 336.534 640 334.878 640H24.1211C22.4643 640 21.1211 638.657 21.1211 637V79.4872Z" fill="#121515"/>
<path fill-rule="evenodd" clip-rule="evenodd" d="M147.492 48.5574C147.492 47.1799 148.609 46.0632 149.986 46.0632H209.014C210.392 46.0632 211.509 47.1799 211.509 48.5574C211.509 49.9349 210.392 51.0515 209.014 51.0515H149.986C148.609 51.0515 147.492 49.9349 147.492 48.5574Z" fill="#262C2D"/>
<path fill-rule="evenodd" clip-rule="evenodd" d="M119.225 55.2084C122.899 55.2084 125.876 52.2306 125.876 48.5573C125.876 44.884 122.899 41.9062 119.225 41.9062C115.552 41.9062 112.574 44.884 112.574 48.5573C112.574 52.2306 115.552 55.2084 119.225 55.2084Z" fill="#262C2D"/>
<path fill-rule="evenodd" clip-rule="evenodd" d="M119.225 52.7142C121.521 52.7142 123.382 50.8531 123.382 48.5573C123.382 46.2615 121.521 44.4004 119.225 44.4004C116.929 44.4004 115.068 46.2615 115.068 48.5573C115.068 50.8531 116.929 52.7142 119.225 52.7142Z" fill="#121515"/>
<path opacity="0.4" fill-rule="evenodd" clip-rule="evenodd" d="M119.226 47.726C119.685 47.726 120.057 47.3538 120.057 46.8946C120.057 46.4355 119.685 46.0632 119.226 46.0632C118.767 46.0632 118.395 46.4355 118.395 46.8946C118.395 47.3538 118.767 47.726 119.226 47.726Z" fill="#636F73"/>
<path fill-rule="evenodd" clip-rule="evenodd" d="M179.5 31.9296C182.026 31.9296 184.073 29.8824 184.073 27.357C184.073 24.8316 182.026 22.7844 179.5 22.7844C176.975 22.7844 174.928 24.8316 174.928 27.357C174.928 29.8824 176.975 31.9296 179.5 31.9296Z" fill="#262C2D"/>
<path fill-rule="evenodd" clip-rule="evenodd" d="M153.311 673.341C153.311 687.804 165.036 699.529 179.499 699.529C193.963 699.529 205.688 687.804 205.688 673.341C205.688 658.877 193.963 647.152 179.499 647.152C165.036 647.152 153.311 658.877 153.311 673.341ZM202.362 673.341C202.362 685.968 192.126 696.204 179.499 696.204C166.872 696.204 156.636 685.968 156.636 673.341C156.636 660.714 166.872 650.478 179.499 650.478C192.126 650.478 202.362 660.714 202.362 673.341Z" fill="#262C2D"/>
</g>
</g>
<defs>
<filter id="filter0_dd_1210_42413" x="0.494141" y="0.5" width="358.012" height="721.326" filterUnits="userSpaceOnUse" color-interpolation-filters="sRGB">
<feFlood flood-opacity="0" result="BackgroundImageFix"/>
<feColorMatrix in="SourceAlpha" type="matrix" values="0 0 0 0 0 0 0 0 0 0 0 0 0 0 0 0 0 0 127 0" result="hardAlpha"/>
<feOffset/>
<feGaussianBlur stdDeviation="1"/>
<feColorMatrix type="matrix" values="0 0 0 0 0 0 0 0 0 0.0823529 0 0 0 0 0.25098 0 0 0 0.14 0"/>
<feBlend mode="normal" in2="BackgroundImageFix" result="effect1_dropShadow_1210_42413"/>
<feColorMatrix in="SourceAlpha" type="matrix" values="0 0 0 0 0 0 0 0 0 0 0 0 0 0 0 0 0 0 127 0" result="hardAlpha"/>
<feOffset dy="2"/>
<feGaussianBlur stdDeviation="2"/>
<feColorMatrix type="matrix" values="0 0 0 0 0 0 0 0 0 0.0823529 0 0 0 0 0.25098 0 0 0 0.05 0"/>
<feBlend mode="normal" in2="effect1_dropShadow_1210_42413" result="effect2_dropShadow_1210_42413"/>
<feBlend mode="normal" in="SourceGraphic" in2="effect2_dropShadow_1210_42413" result="shape"/>
</filter>
<clipPath id="clip0_1210_42413">
<rect width="359" height="722" fill="white"/>
</clipPath>
</defs>
</svg>
