<svg width="359" height="722" viewBox="0 0 359 722" fill="none" xmlns="http://www.w3.org/2000/svg">
<path fill-rule="evenodd" clip-rule="evenodd" d="M354.506 148.323H355.337C356.256 148.323 357 148.792 357 149.371V199.653C357 200.231 356.256 200.7 355.337 200.7H354.506V148.323Z" fill="#121515"/>
<path fill-rule="evenodd" clip-rule="evenodd" d="M2 215.665C2 214.747 2.74444 214.002 3.66276 214.002H4.49415V266.38H3.66276C2.74444 266.38 2 265.635 2 264.717V215.665Z" fill="#121515"/>
<path fill-rule="evenodd" clip-rule="evenodd" d="M2 149.986C2 149.068 2.74444 148.323 3.66276 148.323H4.49415V200.7H3.66276C2.74444 200.7 2 199.956 2 199.038V149.986Z" fill="#121515"/>
<path fill-rule="evenodd" clip-rule="evenodd" d="M2 99.2719C2 98.3536 2.74444 97.6091 3.66276 97.6091H4.49415V125.045H3.66276C2.74444 125.045 2 124.3 2 123.382V99.2719Z" fill="#121515"/>
<g filter="url(#filter0_dd_1916_12093)">
<path fill-rule="evenodd" clip-rule="evenodd" d="M4.49414 54.3773C4.49414 25.4502 27.9441 2.00024 56.8712 2.00024H302.129C331.056 2.00024 354.506 25.4502 354.506 54.3773V662.949C354.506 691.876 331.056 715.326 302.129 715.326H56.8712C27.9441 715.326 4.49414 691.876 4.49414 662.949V54.3773ZM21.1218 81.4874C21.1218 79.8305 22.4649 78.4874 24.1218 78.4874H334.878C336.535 78.4874 337.878 79.8305 337.878 81.4874V635.007C337.878 636.664 336.535 638.007 334.878 638.007H24.1218C22.4649 638.007 21.1218 636.664 21.1218 635.007V81.4874Z" fill="#3A4245"/>
</g>
<path fill-rule="evenodd" clip-rule="evenodd" d="M8.65112 54.3774C8.65112 27.7461 30.24 6.15723 56.8713 6.15723H302.129C328.76 6.15723 350.349 27.7461 350.349 54.3774V662.949C350.349 689.58 328.76 711.169 302.129 711.169H56.8713C30.24 711.169 8.65112 689.58 8.65112 662.949V54.3774ZM21.1218 81.4874C21.1218 79.8306 22.465 78.4874 24.1218 78.4874H334.878C336.535 78.4874 337.878 79.8306 337.878 81.4874V635.007C337.878 636.664 336.535 638.007 334.878 638.007H24.1218C22.465 638.007 21.1218 636.664 21.1218 635.007V81.4874Z" fill="#121515"/>
<path fill-rule="evenodd" clip-rule="evenodd" d="M147.492 48.5576C147.492 47.1801 148.608 46.0635 149.986 46.0635H209.014C210.391 46.0635 211.508 47.1801 211.508 48.5576V48.5576C211.508 49.9351 210.391 51.0518 209.014 51.0518H149.986C148.608 51.0518 147.492 49.9351 147.492 48.5576V48.5576Z" fill="#262C2D"/>
<path fill-rule="evenodd" clip-rule="evenodd" d="M119.225 55.2086C122.898 55.2086 125.876 52.2308 125.876 48.5575C125.876 44.8843 122.898 41.9065 119.225 41.9065C115.552 41.9065 112.574 44.8843 112.574 48.5575C112.574 52.2308 115.552 55.2086 119.225 55.2086Z" fill="#262C2D"/>
<path fill-rule="evenodd" clip-rule="evenodd" d="M119.225 52.7145C121.521 52.7145 123.382 50.8533 123.382 48.5575C123.382 46.2617 121.521 44.4006 119.225 44.4006C116.929 44.4006 115.068 46.2617 115.068 48.5575C115.068 50.8533 116.929 52.7145 119.225 52.7145Z" fill="#121515"/>
<path opacity="0.4" fill-rule="evenodd" clip-rule="evenodd" d="M119.225 47.7262C119.684 47.7262 120.056 47.354 120.056 46.8949C120.056 46.4357 119.684 46.0635 119.225 46.0635C118.766 46.0635 118.393 46.4357 118.393 46.8949C118.393 47.354 118.766 47.7262 119.225 47.7262Z" fill="#636F73"/>
<path fill-rule="evenodd" clip-rule="evenodd" d="M179.5 31.9299C182.025 31.9299 184.073 29.8826 184.073 27.3573C184.073 24.8319 182.025 22.7847 179.5 22.7847C176.975 22.7847 174.927 24.8319 174.927 27.3573C174.927 29.8826 176.975 31.9299 179.5 31.9299Z" fill="#262C2D"/>
<path fill-rule="evenodd" clip-rule="evenodd" d="M153.312 673.341C153.312 687.804 165.037 699.529 179.5 699.529C193.964 699.529 205.689 687.804 205.689 673.341C205.689 658.877 193.964 647.152 179.5 647.152C165.037 647.152 153.312 658.877 153.312 673.341ZM202.363 673.341C202.363 685.968 192.127 696.204 179.5 696.204C166.873 696.204 156.637 685.968 156.637 673.341C156.637 660.714 166.873 650.478 179.5 650.478C192.127 650.478 202.363 660.714 202.363 673.341Z" fill="#262C2D"/>
<defs>
<filter id="filter0_dd_1916_12093" x="0.494141" y="0.000244141" width="358.012" height="721.325" filterUnits="userSpaceOnUse" color-interpolation-filters="sRGB">
<feFlood flood-opacity="0" result="BackgroundImageFix"/>
<feColorMatrix in="SourceAlpha" type="matrix" values="0 0 0 0 0 0 0 0 0 0 0 0 0 0 0 0 0 0 127 0" result="hardAlpha"/>
<feOffset/>
<feGaussianBlur stdDeviation="1"/>
<feColorMatrix type="matrix" values="0 0 0 0 0 0 0 0 0 0.0823529 0 0 0 0 0.25098 0 0 0 0.14 0"/>
<feBlend mode="normal" in2="BackgroundImageFix" result="effect1_dropShadow_1916_12093"/>
<feColorMatrix in="SourceAlpha" type="matrix" values="0 0 0 0 0 0 0 0 0 0 0 0 0 0 0 0 0 0 127 0" result="hardAlpha"/>
<feOffset dy="2"/>
<feGaussianBlur stdDeviation="2"/>
<feColorMatrix type="matrix" values="0 0 0 0 0 0 0 0 0 0.0823529 0 0 0 0 0.25098 0 0 0 0.05 0"/>
<feBlend mode="normal" in2="effect1_dropShadow_1916_12093" result="effect2_dropShadow_1916_12093"/>
<feBlend mode="normal" in="SourceGraphic" in2="effect2_dropShadow_1916_12093" result="shape"/>
</filter>
</defs>
</svg>
