<svg width="32" height="32" viewBox="0 0 32 32" fill="none" xmlns="http://www.w3.org/2000/svg">
<path fill-rule="evenodd" clip-rule="evenodd" d="M15.9998 0C7.14903 0 0 7.15223 0 16.0002C0 24.851 7.15187 32.0003 15.9998 32.0003C24.851 32.0003 32 24.8481 32 16.0002C32 7.14938 24.8481 0 15.9998 0Z" fill="url(#paint0_linear_6885_17820)"/>
<path fill-rule="evenodd" clip-rule="evenodd" d="M6.07039 23.0591C4.99039 21.5422 4.29398 19.866 3.98114 18.0306L5.83043 17.7199C6.09528 19.2716 6.68433 20.6886 7.59689 21.9712L6.06933 23.0601L6.07039 23.0591ZM5.83043 14.2808L3.98185 13.9701C4.29398 12.1343 4.99004 10.4578 6.06933 8.94053L7.59689 10.0283C6.68398 11.3113 6.09528 12.7287 5.83043 14.2808ZM13.9688 28.0182C12.1337 27.7058 10.4579 27.0101 8.94102 25.9308L10.0292 24.4032C11.3118 25.3161 12.7292 25.9052 14.2813 26.1697L13.9706 28.0182H13.9688ZM10.0281 7.59746L8.94102 6.0699C10.4579 4.99061 12.1344 4.29455 13.9699 3.98242L14.2813 5.83065C12.7292 6.09549 11.3118 6.68455 10.0292 7.59746H10.0281ZM25.9302 8.94053C27.0098 10.4574 27.7059 12.1336 28.018 13.9694L26.1694 14.2808C25.9046 12.7291 25.3162 11.3113 24.4037 10.0283L25.9302 8.9416V8.94053ZM18.0311 28.0182L17.7193 26.1697C19.271 25.9048 20.6884 25.3161 21.9707 24.4032L23.0599 25.9308C21.5423 27.0104 19.8658 27.7061 18.03 28.0182H18.0311ZM21.9707 7.59746C20.6884 6.68455 19.271 6.09585 17.7193 5.83065L18.03 3.98242C19.8288 4.28459 21.569 5.00732 23.0599 6.0699L21.9707 7.59746ZM25.9313 23.0591L24.4048 21.9702C25.317 20.6876 25.9057 19.2705 26.1705 17.7188L28.0187 18.0295C27.707 19.8653 27.0109 21.5418 25.9313 23.0591Z" fill="white"/>
<path fill-rule="evenodd" clip-rule="evenodd" d="M16.0002 11.2932C18.5996 11.2932 20.707 13.4006 20.707 16C20.707 18.5994 18.5996 20.7068 16.0002 20.7068C13.4008 20.7068 11.2935 18.5994 11.2935 16C11.2935 13.4006 13.4008 11.2932 16.0002 11.2932Z" fill="white" fill-opacity="0.5"/>
<defs>
<linearGradient id="paint0_linear_6885_17820" x1="7.05873" y1="3.29403" x2="20.7059" y2="30.5887" gradientUnits="userSpaceOnUse">
<stop stop-color="#FF0198"/>
<stop offset="1" stop-color="#B90AE0"/>
</linearGradient>
</defs>
</svg>
